# xmcd
#
# Track frame offsets: 
#        150
#        12639
#        22811
#        35529
#        50543
#        61785
#        72331
#        84012
#        95282
#        107017
#        119589
#        134892
#        146509
#        157654
#        168654
#        184378
#        197526
#        208918
#        220181
#        231519
#        244773
#        258795
#        271063
#        285125
#        298029
#
# Disc length: 4163 seconds
#
# Revision: 0
# Processed by: cddbd v1.5.2PL0 Copyright (c) Steve Scherf et al.
# Submitted via: ExactAudioCopy v1.3
#
DISCID=6a104119
DTITLE=Various Artist - Greatest Hits - Blues [CD8)
DYEAR=2009
DGENRE=Blues
TTITLE0=Bo Diddley - I'm A Man
TTITLE1=James Brown - No, No, No, No
TTITLE2=Ray Charles - I Wonder Who
TTITLE3=Johnny "Guitar" Watson - Don't Touch Me (I'm Gonna Hit The Hig
TTITLE3=hway)
TTITLE4=Billie Holiday - I Cried For You (Now It's Your Turn To Cry Ov
TTITLE4=er Me)
TTITLE5=Bobby "Blue" Bland - Bobby's Blues
TTITLE6=John Lee Hooker - Queen Bee
TTITLE7=Johnny "Guitar" Watson - What's Goin' On
TTITLE8=Ray Charles - Lonely Avenue
TTITLE9=Bobby "Blue" Bland - I Work Up Screaming
TTITLE10=Muddy Waters - They Call Me Muddy Waters
TTITLE11=B.B. King - Hard Workin' Woman
TTITLE12=Baby "Pee Wee" Parham - People Are Wonderin'
TTITLE13=T-Bone Walker - Welcome Blues (Say Pretty Baby)
TTITLE14=Ray Charles - The Right Time
TTITLE15=John Lee Hooker - Lord What More Can I Do
TTITLE16=B.B. King - Whole Lotta Meat
TTITLE17=Bo Diddley - Diddy Wah
TTITLE18=T-Bone Walker - Strollin' With Bone
TTITLE19=Bo Diddley - The Clock Strikes Twelve
TTITLE20=Mercy Dee - Empty Life
TTITLE21=Muddy Waters - Howling Wolf
TTITLE22=Ray Charles - Come Back Baby
TTITLE23=T-Bone Walker - Stormy Monday blues (T-Bone Walker)
TTITLE24=Bus Moten and His Men - Best Friend Blues
EXTD=
EXTT0=
EXTT1=
EXTT2=
EXTT3=
EXTT4=
EXTT5=
EXTT6=
EXTT7=
EXTT8=
EXTT9=
EXTT10=
EXTT11=
EXTT12=
EXTT13=
EXTT14=
EXTT15=
EXTT16=
EXTT17=
EXTT18=
EXTT19=
EXTT20=
EXTT21=
EXTT22=
EXTT23=
EXTT24=
PLAYORDER=
